<svg xmlns="http://www.w3.org/2000/svg" viewBox="0 0 900 600" role="img" aria-labelledby="title desc"><title id="title">Recognise weeds and compare control approaches concept map</title><desc id="desc">A course-owned diagram linking A weed is defined by context and authority, Describe features before naming the plant, Map occurrence without exposing a real property, Compare control approaches at strategy level.</desc><defs><marker id="arrow" viewBox="0 0 12 12" refX="11" refY="6" markerUnits="userSpaceOnUse" markerWidth="14" markerHeight="14" orient="auto-start-reverse"><path d="M 1 1 L 11 6 L 1 11 z" fill="#185d49"/></marker><filter id="shadow" x="-20%" y="-20%" width="140%" height="140%"><feDropShadow dx="0" dy="5" stdDeviation="6" flood-color="#102e25" flood-opacity=".16"/></filter></defs><rect width="900" height="600" rx="28" fill="#fbfaf5"/><rect x="0" y="0" width="900" height="132" rx="28" fill="#143f34"/><rect x="0" y="106" width="900" height="26" fill="#143f34"/><text x="54" y="42" font-family="Arial, Segoe UI, sans-serif" font-size="25" font-weight="900" letter-spacing="2" fill="#f0bf43">TASK 10 · TASK-10-02</text><text x="54" y="74" text-anchor="start" font-family="Arial, Segoe UI, sans-serif" font-size="34" font-weight="800" fill="#fff"><tspan x="54" dy="0">Recognise weeds and compare</tspan><tspan x="54" dy="36">control approaches</tspan></text><path d="M450 275 V300 M270 460 L300 400 M630 460 L600 400" fill="none" stroke="#185d49" stroke-width="8"/><g filter="url(#shadow)"><rect x="270" y="145" width="360" height="130" rx="24" fill="#e8f3ee" stroke="#185d49" stroke-width="5"/><text x="450" y="191.75" text-anchor="middle" font-family="Arial, Segoe UI, sans-serif" font-size="25" font-weight="800" fill="#14352b"><tspan x="450" dy="0">A weed is defined by</tspan><tspan x="450" dy="29">context and</tspan><tspan x="450" dy="29">authority</tspan></text></g><g filter="url(#shadow)"><rect x="5" y="370" width="265" height="180" rx="24" fill="#fff4d7" stroke="#b77a12" stroke-width="5"/><text x="137.5" y="427.25" text-anchor="middle" font-family="Arial, Segoe UI, sans-serif" font-size="25" font-weight="800" fill="#14352b"><tspan x="137.5" dy="0">Describe</tspan><tspan x="137.5" dy="29">features</tspan><tspan x="137.5" dy="29">before naming</tspan><tspan x="137.5" dy="29">the plant</tspan></text></g><g filter="url(#shadow)"><rect x="630" y="370" width="265" height="180" rx="24" fill="#e8f2f7" stroke="#2a6f91" stroke-width="5"/><text x="762.5" y="412.75" text-anchor="middle" font-family="Arial, Segoe UI, sans-serif" font-size="25" font-weight="800" fill="#14352b"><tspan x="762.5" dy="0">Map</tspan><tspan x="762.5" dy="29">occurrence</tspan><tspan x="762.5" dy="29">without</tspan><tspan x="762.5" dy="29">exposing a real</tspan><tspan x="762.5" dy="29">property</tspan></text></g><g filter="url(#shadow)"><rect x="270" y="300" width="360" height="155" rx="24" fill="#f1eaf7" stroke="#805c9f" stroke-width="5"/><text x="450" y="359.25" text-anchor="middle" font-family="Arial, Segoe UI, sans-serif" font-size="25" font-weight="800" fill="#14352b"><tspan x="450" dy="0">Compare control</tspan><tspan x="450" dy="29">approaches at</tspan><tspan x="450" dy="29">strategy level</tspan></text></g><rect x="45" y="560" width="810" height="4" rx="2" fill="#d7e6de"/><text x="450" y="588" text-anchor="middle" font-family="Arial, Segoe UI, sans-serif" font-size="25" font-weight="700" fill="#35574d">Observe · compare · confirm the current authorised source</text></svg>